<svg xmlns="http://www.w3.org/2000/svg" version="1.1" xmlns:xlink="http://www.w3.org/1999/xlink" xmlns:svgjs="http://svgjs.com/svgjs" width="1000" height="1000"><rect width="1000" height="1000" rx="200" ry="200" fill="#ffbe6f"></rect><g transform="matrix(25,0,0,25,100,75.9992904663086)"><svg xmlns="http://www.w3.org/2000/svg" version="1.1" xmlns:xlink="http://www.w3.org/1999/xlink" xmlns:svgjs="http://svgjs.com/svgjs" width="32" height="32"><svg xmlns="http://www.w3.org/2000/svg" width="32" height="32" viewBox="0 0 256 256"><g fill="currentColor"><path d="M208 56v72H48V56a24 24 0 0 1 24-24h112a24 24 0 0 1 24 24" opacity=".2"></path><path d="M184 24H72a32 32 0 0 0-32 32v128a32 32 0 0 0 32 32h8l-14.4 19.2a8 8 0 1 0 12.8 9.6L100 216h56l21.6 28.8a8 8 0 1 0 12.8-9.6L176 216h8a32 32 0 0 0 32-32V56a32 32 0 0 0-32-32M72 40h112a16 16 0 0 1 16 16v64H56V56a16 16 0 0 1 16-16m112 160H72a16 16 0 0 1-16-16v-48h144v48a16 16 0 0 1-16 16m-88-28a12 12 0 1 1-12-12a12 12 0 0 1 12 12m88 0a12 12 0 1 1-12-12a12 12 0 0 1 12 12"></path></g></svg></svg></g></svg>